<svg width="24" height="24" viewBox="0 0 24 24" fill="none" xmlns="http://www.w3.org/2000/svg">
<path d="M1.45053 6.648C1.11569 6.74368 0.811631 6.92512 0.568443 7.17439C0.325255 7.42365 0.151367 7.7321 0.0639853 8.0692C-0.0233965 8.4063 -0.0212436 8.76038 0.070231 9.09639C0.161706 9.43241 0.339331 9.73871 0.585532 9.985L3.99753 13.393V19.979H10.5905L14.0255 23.409C14.2099 23.595 14.4292 23.7426 14.6708 23.8435C14.9125 23.9445 15.1717 23.9966 15.4335 23.997C15.6056 23.9967 15.777 23.9745 15.9435 23.931C16.2805 23.8461 16.5892 23.674 16.8384 23.4319C17.0877 23.1898 17.2688 22.8863 17.3635 22.552L23.9975 0L1.45053 6.648ZM2.00653 8.571L19.0345 3.551L5.99953 16.565V12.565L2.00653 8.571ZM15.4465 21.995L11.4195 17.979H7.41953L20.4525 4.957L15.4465 21.995Z" fill="white"/>
</svg>
